/* XPM */
static char * cogre_node_xpm[] = {
"24 24 2 1",
" 	c None",
".	c #000000",
"                        ",
" ...................... ",
" .                    . ",
" .                    . ",
" .                    . ",
" .                    . ",
" .                    . ",
" .                    . ",
" . .  .         .     . ",
" . .  .         .     . ",
" . .. .  ..   ...  .  . ",
" . .. . .  . .  . . . . ",
" . . .. .  . .  . ... . ",
" . .  . .  . .  . .   . ",
" . .  .  ..   ...  .. . ",
" .                    . ",
" .                    . ",
" .                    . ",
" .                    . ",
" .                    . ",
" .                    . ",
" .                    . ",
" ...................... ",
"                        "};
